<svg width="487" height="563" viewBox="0 0 487 563" fill="none" xmlns="http://www.w3.org/2000/svg">
<path opacity="0.07" d="M207.113 1.31895L487 314.45L207.05 304.427C204.983 304.365 202.729 300.982 203.23 298.727L231.413 173.575L372.452 244.232L229.722 150.963L203.293 2.697C202.791 -0.18438 205.046 -0.936044 207.113 1.31895Z" fill="url(#paint0_linear)"/>
<path opacity="0.4" d="M185.631 16.9161L465.518 330.047L185.568 320.025C183.502 319.962 181.247 316.58 181.748 314.325L209.868 189.235L350.908 259.892L208.302 166.56L181.811 18.2942C181.31 15.4128 183.564 14.6611 185.631 16.9161Z" fill="url(#paint1_linear)"/>
<path opacity="0.3" d="M206.236 347.711L19.8535 240.098L19.9161 337.25L189.828 435.342L206.299 459.709L206.236 347.711Z" fill="url(#paint2_linear)"/>
<path d="M0 277.994V251.623L70.3319 292.213V318.584L0 277.994Z" fill="#9A31E9"/>
<path opacity="0.15" d="M158.325 343.702L117.491 320.15V328.669L158.325 352.221V343.702Z" fill="white"/>
<path opacity="0.15" d="M158.325 360.74L79.6011 315.327V323.846L158.325 369.259V360.74Z" fill="white"/>
<path opacity="0.15" d="M158.388 377.84L63.0044 322.781V331.3L158.388 386.359V377.84Z" fill="white"/>
<path d="M168.408 358.36C168.408 366.377 173.168 375.585 178.992 378.968C184.817 382.35 189.577 378.592 189.577 370.574C189.577 362.556 184.817 353.348 178.992 349.966C173.105 346.583 168.408 350.342 168.408 358.36Z" fill="#9A31E9"/>
<path opacity="0.3" d="M222.332 267.471L408.714 375.084L408.777 472.237L238.803 374.082L222.394 379.469L222.332 267.471Z" fill="url(#paint3_linear)"/>
<path d="M354.478 392.184V365.813L424.81 406.403V432.774L354.478 392.184Z" fill="#B789FF"/>
<path opacity="0.15" d="M270.242 318.772L311.076 342.324V350.843L270.242 327.291V318.772Z" fill="white"/>
<path opacity="0.15" d="M270.242 335.872L343.956 378.404V386.923L270.242 344.391V335.872Z" fill="white"/>
<path opacity="0.15" d="M270.305 352.91L365.689 407.969V416.488L270.305 361.429V352.91Z" fill="white"/>
<path d="M260.222 321.841C260.222 329.859 255.462 333.617 249.637 330.235C243.813 326.852 239.053 317.644 239.053 309.627C239.053 301.609 243.813 297.85 249.637 301.233C255.462 304.615 260.222 313.886 260.222 321.841Z" fill="#B789FF"/>
<path opacity="0.2" d="M434.204 504.997L322.913 440.729V498.733L434.204 563V504.997Z" fill="url(#paint4_linear)"/>
<path opacity="0.15" d="M351.409 471.172L384.853 490.527V497.48L351.409 478.125V471.172Z" fill="white"/>
<path opacity="0.15" d="M351.409 485.14L422.681 526.294V533.372L351.409 492.218V485.14Z" fill="white"/>
<path d="M345.522 473.239C345.522 477.999 342.704 480.254 339.197 478.25C335.689 476.245 332.871 470.733 332.871 465.973C332.871 461.212 335.689 458.957 339.197 460.962C342.704 462.966 345.522 468.478 345.522 473.239Z" fill="#B789FF"/>
<path opacity="0.2" d="M126.071 416.05L14.7803 351.782V409.786L126.071 474.053V416.05Z" fill="url(#paint5_linear)"/>
<path opacity="0.15" d="M43.2764 382.225L76.72 401.58V408.533L43.2764 389.178V382.225Z" fill="white"/>
<path opacity="0.15" d="M43.2764 396.193L114.548 437.347V444.425L43.2764 403.272V396.193Z" fill="white"/>
<path d="M37.3893 384.292C37.3893 389.052 34.571 391.307 31.0638 389.303C27.5566 387.298 24.7383 381.786 24.7383 377.026C24.7383 372.265 27.5566 370.01 31.0638 372.015C34.571 374.019 37.3893 379.531 37.3893 384.292Z" fill="#9A31E9"/>
<path opacity="0.2" d="M142.042 231.579L115.237 216.107V207.087L142.042 222.559C144.234 223.811 147.428 226.38 150.121 230.326C153.064 234.523 155.131 239.847 155.131 245.61C155.131 251.999 153.503 255.632 150.434 256.634C147.553 257.574 144.109 255.945 142.042 254.755L131.019 248.366L130.957 248.303C130.017 247.739 128.514 247.176 127.324 247.551C126.322 247.865 125.257 248.804 125.257 252.375C125.257 255.945 126.385 258.075 127.262 259.39C128.389 261.019 129.892 262.146 130.831 262.647L130.957 262.71L164.651 282.191V291.211L131.144 271.855C128.827 270.665 125.508 268.097 122.627 264.088C119.496 259.641 117.366 254.066 117.366 247.865C117.366 241.663 119.496 238.532 122.564 237.655C125.445 236.84 128.765 238.03 131.082 239.408L141.979 245.672C143.545 246.612 144.735 246.988 145.549 246.737C146.175 246.549 147.303 245.672 147.303 241.1C147.303 238.093 146.363 236.151 145.424 234.898C144.359 233.27 142.919 232.08 142.042 231.579Z" fill="white"/>
<path d="M120.122 214.165C120.122 222.246 115.362 226.067 109.537 222.747C103.713 219.364 98.9531 210.094 98.9531 201.951C98.9531 193.87 103.713 190.049 109.537 193.369C115.362 196.752 120.122 206.085 120.122 214.165Z" fill="#9A31E9"/>
<path d="M178.366 294.343C178.366 302.423 173.606 306.244 167.782 302.924C161.958 299.542 157.198 290.271 157.198 282.128C157.198 274.048 161.958 270.227 167.782 273.547C173.606 276.929 178.366 286.262 178.366 294.343Z" fill="#B789FF"/>
<path opacity="0.2" d="M252.769 423.817V476.621C252.769 477.185 253.333 477.811 253.708 477.624L266.046 470.044L278.635 492.344C279.324 493.534 280.514 493.659 280.514 492.532V439.915L252.769 423.817Z" fill="url(#paint6_linear)"/>
<defs>
<linearGradient id="paint0_linear" x1="382.183" y1="108.785" x2="254.617" y2="277.22" gradientUnits="userSpaceOnUse">
<stop stop-color="white"/>
<stop offset="1" stop-color="white" stop-opacity="0"/>
</linearGradient>
<linearGradient id="paint1_linear" x1="360.73" y1="124.389" x2="233.164" y2="292.824" gradientUnits="userSpaceOnUse">
<stop stop-color="white"/>
<stop offset="1" stop-color="white" stop-opacity="0"/>
</linearGradient>
<linearGradient id="paint2_linear" x1="165.606" y1="308.778" x2="69.3646" y2="384.12" gradientUnits="userSpaceOnUse">
<stop stop-color="white"/>
<stop offset="1" stop-color="white" stop-opacity="0"/>
</linearGradient>
<linearGradient id="paint3_linear" x1="302.395" y1="270.6" x2="326.497" y2="466.052" gradientUnits="userSpaceOnUse">
<stop stop-color="white"/>
<stop offset="1" stop-color="white" stop-opacity="0"/>
</linearGradient>
<linearGradient id="paint4_linear" x1="391.104" y1="480.119" x2="365.994" y2="523.615" gradientUnits="userSpaceOnUse">
<stop stop-color="white"/>
<stop offset="1" stop-color="white" stop-opacity="0"/>
</linearGradient>
<linearGradient id="paint5_linear" x1="82.9712" y1="391.171" x2="57.8614" y2="434.668" gradientUnits="userSpaceOnUse">
<stop stop-color="white"/>
<stop offset="1" stop-color="white" stop-opacity="0"/>
</linearGradient>
<linearGradient id="paint6_linear" x1="278.639" y1="450.809" x2="247.058" y2="470.806" gradientUnits="userSpaceOnUse">
<stop stop-color="white"/>
<stop offset="1" stop-color="white" stop-opacity="0"/>
</linearGradient>
</defs>
</svg>
