<svg width="173" height="202" viewBox="0 0 173 202" fill="none" xmlns="http://www.w3.org/2000/svg">
<path opacity="0.2" d="M115.586 80.4258L155.223 57.6025V78.2003L115.586 101.024V80.4258Z" fill="url(#paint0_linear)"/>
<path d="M147.177 69.1563C147.177 70.8609 148.174 71.6422 149.432 70.932C150.666 70.2217 151.686 68.2566 151.686 66.552C151.686 64.8473 150.689 64.066 149.432 64.7763C148.174 65.4866 147.177 67.4517 147.177 69.1563Z" fill="#5E60CE"/>
<path opacity="0.15" d="M145.089 67.7831L130.634 76.0932V79.3131L145.089 71.003V67.7831Z" fill="white"/>
<path opacity="0.15" d="M145.065 74.6965L119.669 89.3044V92.5242L145.065 77.9164V74.6965Z" fill="white"/>
<path opacity="0.07" d="M84.4472 13.9211L39.9927 39.5144V134.974L84.4234 109.381L84.4472 13.9211Z" fill="url(#paint1_linear)"/>
<path opacity="0.3" d="M94.724 22.5392L50.2695 48.1325V143.592L94.7003 117.999L94.724 22.5392Z" fill="url(#paint2_linear)"/>
<path opacity="0.15" d="M90.4279 75.7382L54.7314 96.2886V99.5084L90.4279 78.958V75.7382Z" fill="white"/>
<path opacity="0.15" d="M87.9356 83.5747L57.2471 101.26V104.48L87.9356 86.7946V83.5747Z" fill="white"/>
<path d="M106.33 96.1229V85.4689L80.1035 100.574V111.228L106.33 96.1229Z" fill="#B263EA"/>
<path opacity="0.2" d="M14.834 93.8499C16.8751 90.6064 19.6995 90.1802 19.8182 90.1566C20.103 90.1092 20.2692 90.3696 20.2692 90.7484V99.319C20.2692 102.231 21.266 104.101 23.236 104.906C23.4258 104.977 23.5445 105.191 23.5445 105.475C23.5445 109.594 23.4733 127.28 23.4496 132.796C23.4496 133.72 22.8087 134.809 22.0255 135.259C17.8245 137.697 5.69625 144.681 5.69625 144.681C2.46838 146.552 0.403484 145.392 0.0474688 141.556L0 124.581C0 122 0.450953 119.349 1.87502 117.147C2.68199 115.892 3.63136 114.921 4.6282 114.353L12.9115 109.594V101.639C12.8878 98.514 13.5523 95.9097 14.834 93.8499Z" fill="url(#paint3_linear)"/>
<path d="M34.6285 98.1589L25.3721 103.486V133.696L34.6285 128.369V98.1589Z" fill="#5E60CE"/>
<path opacity="0.3" d="M102.367 40.6746L173 0L172.976 36.7208L108.585 73.7968L102.343 83.0066L102.367 40.6746Z" fill="url(#paint4_linear)"/>
<path opacity="0.15" d="M120.523 39.1358L135.998 30.2338V33.4536L120.523 42.3793V39.1358Z" fill="white"/>
<path opacity="0.15" d="M120.523 45.5991L158.854 23.5334V26.7533L120.523 48.819V45.5991Z" fill="white"/>
<path opacity="0.15" d="M120.523 52.0626L166.758 25.4276V28.6475L120.523 55.2825V52.0626Z" fill="white"/>
<path d="M116.726 44.6995C116.726 47.7299 114.922 51.2103 112.715 52.4887C110.507 53.7672 108.704 52.3467 108.704 49.3162C108.704 46.2857 110.507 42.8054 112.715 41.5269C114.922 40.2485 116.726 41.669 116.726 44.6995Z" fill="#B263EA"/>
<path opacity="0.3" d="M71.9153 124.604L1.30547 165.279L1.28174 202L65.6731 164.924L71.8915 166.96L71.9153 124.604Z" fill="url(#paint5_linear)"/>
<path opacity="0.15" d="M53.7585 144.019L38.2837 152.921V156.14L53.7585 147.238V144.019Z" fill="white"/>
<path opacity="0.15" d="M53.7581 150.458L25.8228 166.534V169.754L53.7581 153.678V150.458Z" fill="white"/>
<path opacity="0.15" d="M53.7583 156.922L17.6108 177.732V180.952L53.7583 160.142V156.922Z" fill="white"/>
<path d="M57.5557 145.179C57.5557 148.209 59.3595 149.63 61.5668 148.351C63.7741 147.073 65.5779 143.592 65.5779 140.562C65.5779 137.531 63.7741 136.111 61.5668 137.389C59.3595 138.668 57.5557 142.148 57.5557 145.179Z" fill="#5E60CE"/>
<path opacity="0.2" d="M96.3614 118.307C94.9373 119.112 93.7981 121.101 93.7981 122.734V129.955L89.0037 132.702C87.5797 133.507 86.4404 135.495 86.4404 137.129C86.4404 138.763 87.5797 139.425 89.0037 138.62L93.7981 135.874V143.095C93.7981 144.729 94.9373 145.392 96.3614 144.587C97.7855 143.782 98.9247 141.793 98.9247 140.159V132.938L103.719 130.192C105.143 129.387 106.282 127.398 106.282 125.765C106.282 124.131 105.143 123.468 103.719 124.273L98.9247 127.019V119.798C98.9484 118.165 97.7855 117.478 96.3614 118.307Z" fill="url(#paint6_linear)"/>
<path opacity="0.05" d="M72.6036 72.2105C92.9677 45.7886 78.2286 36.2237 72.6036 51.7075C66.9548 42.8055 52.2157 69.4879 72.6036 72.2105Z" fill="url(#paint7_linear)"/>
<path opacity="0.3" d="M77.3501 76.9456C97.7142 50.5237 82.9752 40.9588 77.3501 56.4426C71.7013 47.5406 56.9623 74.2229 77.3501 76.9456Z" fill="white"/>
<defs>
<linearGradient id="paint0_linear" x1="130.942" y1="71.5962" x2="139.848" y2="87.0648" gradientUnits="userSpaceOnUse">
<stop stop-color="white"/>
<stop offset="1" stop-color="white" stop-opacity="0"/>
</linearGradient>
<linearGradient id="paint1_linear" x1="36.4235" y1="29.8629" x2="81.0675" y2="107.401" gradientUnits="userSpaceOnUse">
<stop stop-color="white"/>
<stop offset="1" stop-color="white" stop-opacity="0"/>
</linearGradient>
<linearGradient id="paint2_linear" x1="46.6938" y1="38.4811" x2="91.3375" y2="116.019" gradientUnits="userSpaceOnUse">
<stop stop-color="white"/>
<stop offset="1" stop-color="white" stop-opacity="0"/>
</linearGradient>
<linearGradient id="paint3_linear" x1="20.5349" y1="114.463" x2="-9.18687" y2="125.866" gradientUnits="userSpaceOnUse">
<stop stop-color="white"/>
<stop offset="1" stop-color="white" stop-opacity="0"/>
</linearGradient>
<linearGradient id="paint4_linear" x1="117.773" y1="25.9584" x2="154.172" y2="54.5287" gradientUnits="userSpaceOnUse">
<stop stop-color="white"/>
<stop offset="1" stop-color="white" stop-opacity="0"/>
</linearGradient>
<linearGradient id="paint5_linear" x1="41.5809" y1="125.803" x2="32.4946" y2="199.684" gradientUnits="userSpaceOnUse">
<stop stop-color="white"/>
<stop offset="1" stop-color="white" stop-opacity="0"/>
</linearGradient>
<linearGradient id="paint6_linear" x1="91.4105" y1="127.535" x2="103.813" y2="137.347" gradientUnits="userSpaceOnUse">
<stop stop-color="white"/>
<stop offset="1" stop-color="white" stop-opacity="0"/>
</linearGradient>
<linearGradient id="paint7_linear" x1="68.2489" y1="52.7745" x2="83.431" y2="65.788" gradientUnits="userSpaceOnUse">
<stop stop-color="white"/>
<stop offset="1" stop-color="white" stop-opacity="0"/>
</linearGradient>
</defs>
</svg>
