<svg width="186" height="167" viewBox="0 0 186 167" fill="none" xmlns="http://www.w3.org/2000/svg">
<path opacity="0.07" d="M62.4951 25.4554C61.9836 25.7465 61.5209 26.45 61.4478 27.0807L50.074 120.789C49.9765 121.589 50.4636 121.953 51.1212 121.589L113.032 86.003C113.665 85.6392 114.177 84.6931 114.079 84.0139L102.681 3.38074C102.608 2.82281 102.17 2.65301 101.634 2.9441L62.4951 25.4554Z" fill="url(#paint0_linear)"/>
<path opacity="0.4" d="M78.4966 26.7897C78.4966 16.941 84.2931 5.61258 91.4291 1.48875C98.5652 -2.61083 104.362 2.04668 104.362 11.8954L101.561 13.4964V13.4721C101.561 5.73387 97.0065 2.07094 91.4048 5.29723C85.8031 8.52353 81.2487 17.4262 81.2487 25.1644V25.1887L78.4966 26.7897Z" fill="url(#paint1_linear)"/>
<path opacity="0.4" d="M70.8492 32.2475C70.9222 31.6168 71.3606 30.9134 71.8964 30.6223L111.011 8.11097C111.522 7.81988 111.985 7.98968 112.058 8.54761L123.456 89.1565C123.554 89.8357 123.067 90.7817 122.409 91.1456L60.5226 126.732C59.8894 127.096 59.3779 126.732 59.4753 125.931L70.8492 32.2475Z" fill="url(#paint2_linear)"/>
<path opacity="0.3" d="M105.823 44.5705L178.28 2.89551L178.255 40.5194L112.204 78.5072L105.799 87.9436L105.823 44.5705Z" fill="url(#paint3_linear)"/>
<path d="M186 17.5717V7.35913L158.649 23.0782V33.2908L186 17.5717Z" fill="#B263EA"/>
<path opacity="0.15" d="M124.455 43.0182L140.334 33.8972V37.1963L124.455 46.3172V43.0182Z" fill="white"/>
<path opacity="0.15" d="M124.455 49.6164L155.069 32.0294V35.3285L124.455 52.9154V49.6164Z" fill="white"/>
<path opacity="0.15" d="M124.43 56.2385L161.523 34.9159V38.215L124.43 59.5376V56.2385Z" fill="white"/>
<path d="M120.533 48.6944C120.533 51.7995 118.682 55.3654 116.417 56.6753C114.152 57.9852 112.301 56.5297 112.301 53.4247C112.301 50.3197 114.152 46.7538 116.417 45.4439C118.707 44.134 120.533 45.5894 120.533 48.6944Z" fill="#B263EA"/>
<path opacity="0.3" d="M97.3719 87.7253L24.8911 129.376L24.8667 167L90.9421 129.012L97.3232 131.098L97.3719 87.7253Z" fill="url(#paint4_linear)"/>
<path d="M45.9826 136.023V125.81L18.6318 141.529V151.742L45.9826 136.023Z" fill="#5E60CE"/>
<path opacity="0.15" d="M78.7399 107.593L62.8604 116.714V120.013L78.7399 110.892V107.593Z" fill="white"/>
<path opacity="0.15" d="M78.7158 114.215L50.0498 130.686V133.985L78.7158 117.514V114.215Z" fill="white"/>
<path opacity="0.15" d="M78.7159 120.813L41.623 142.136V145.435L78.7159 124.112V120.813Z" fill="white"/>
<path d="M82.6367 108.781C82.6367 111.886 84.4877 113.342 86.7527 112.032C89.0178 110.722 90.8687 107.156 90.8687 104.051C90.8687 100.946 89.0178 99.4905 86.7527 100.8C84.4877 102.11 82.6367 105.701 82.6367 108.781Z" fill="#5E60CE"/>
<path opacity="0.2" d="M173.36 77.8767L123.724 106.404V80.351L173.36 51.8237V77.8767Z" fill="url(#paint5_linear)"/>
<path d="M133.807 82.6311C133.807 80.4722 132.541 79.4776 130.982 80.3509C129.423 81.2484 128.157 83.7227 128.157 85.8574C128.157 88.0164 129.423 89.0109 130.982 88.1376C132.541 87.2401 133.807 84.7901 133.807 82.6311Z" fill="#B263EA"/>
<path opacity="0.15" d="M136.364 89.5446L168.269 71.2057V67.9066L136.364 86.2456V89.5446Z" fill="white"/>
<path opacity="0.15" d="M136.438 82.7768L150.953 74.4321V71.1331L136.438 79.4778V82.7768Z" fill="white"/>
<path opacity="0.2" d="M0 112.614L49.6357 84.0867V110.14L0 138.667V112.614Z" fill="url(#paint6_linear)"/>
<path opacity="0.15" d="M36.9954 97.7924L24.8179 104.803V108.102L36.9954 101.091V97.7924Z" fill="white"/>
<path opacity="0.15" d="M36.9224 104.318L10.7163 119.358V122.657L36.8981 107.593L36.9224 104.318Z" fill="white"/>
<path d="M39.5527 98.2533C39.5527 100.412 40.8192 101.407 42.3779 100.534C43.9367 99.636 45.2031 97.1617 45.2031 95.027C45.2031 92.868 43.9367 91.8735 42.3779 92.7468C40.8192 93.62 39.5527 96.0943 39.5527 98.2533Z" fill="#5E60CE"/>
<path opacity="0.2" d="M126.647 142.306C143.111 121.25 131.201 113.681 126.647 126.004C122.092 118.945 110.183 140.195 126.647 142.306Z" fill="url(#paint7_linear)"/>
<path opacity="0.2" d="M34.8035 44.328C33.3422 45.1528 32.1731 47.1905 32.1731 48.8643V56.2629L27.2534 59.0768C25.7921 59.9016 24.623 61.9392 24.623 63.6373C24.623 65.3111 25.7921 65.9903 27.2534 65.1655L32.1731 62.3516V69.7503C32.1731 71.4241 33.3422 72.1033 34.8035 71.2785C36.2648 70.4537 37.4338 68.4161 37.4338 66.718V59.3194L42.3536 56.5055C43.8149 55.6807 44.9839 53.643 44.9839 51.9693C44.9839 50.2955 43.8149 49.6162 42.3536 50.441L37.4582 53.2307V45.832C37.4582 44.1582 36.2648 43.479 34.8035 44.328Z" fill="url(#paint8_linear)"/>
<defs>
<linearGradient id="paint0_linear" x1="47.4979" y1="50.5559" x2="111.602" y2="76.7587" gradientUnits="userSpaceOnUse">
<stop stop-color="white"/>
<stop offset="1" stop-color="white" stop-opacity="0"/>
</linearGradient>
<linearGradient id="paint1_linear" x1="85.2683" y1="10.2681" x2="126.691" y2="47.9514" gradientUnits="userSpaceOnUse">
<stop stop-color="white"/>
<stop offset="1" stop-color="white" stop-opacity="0"/>
</linearGradient>
<linearGradient id="paint2_linear" x1="56.9416" y1="41.4051" x2="98.3638" y2="79.0885" gradientUnits="userSpaceOnUse">
<stop stop-color="white"/>
<stop offset="1" stop-color="white" stop-opacity="0"/>
</linearGradient>
<linearGradient id="paint3_linear" x1="121.62" y1="29.4955" x2="158.928" y2="58.8236" gradientUnits="userSpaceOnUse">
<stop stop-color="white"/>
<stop offset="1" stop-color="white" stop-opacity="0"/>
</linearGradient>
<linearGradient id="paint4_linear" x1="66.2196" y1="88.936" x2="56.9236" y2="164.637" gradientUnits="userSpaceOnUse">
<stop stop-color="white"/>
<stop offset="1" stop-color="white" stop-opacity="0"/>
</linearGradient>
<linearGradient id="paint5_linear" x1="154.206" y1="88.888" x2="142.946" y2="69.3007" gradientUnits="userSpaceOnUse">
<stop stop-color="white" stop-opacity="0"/>
<stop offset="1" stop-color="white"/>
</linearGradient>
<linearGradient id="paint6_linear" x1="19.1535" y1="101.603" x2="30.4144" y2="121.19" gradientUnits="userSpaceOnUse">
<stop stop-color="white"/>
<stop offset="1" stop-color="white" stop-opacity="0"/>
</linearGradient>
<linearGradient id="paint7_linear" x1="123.187" y1="126.805" x2="135.284" y2="137.32" gradientUnits="userSpaceOnUse">
<stop stop-color="white"/>
<stop offset="1" stop-color="white" stop-opacity="0"/>
</linearGradient>
<linearGradient id="paint8_linear" x1="29.717" y1="53.7885" x2="42.4295" y2="63.8613" gradientUnits="userSpaceOnUse">
<stop stop-color="white"/>
<stop offset="1" stop-color="white" stop-opacity="0"/>
</linearGradient>
</defs>
</svg>
