<svg width="523" height="646" viewBox="0 0 523 646" fill="none" xmlns="http://www.w3.org/2000/svg">
<path opacity="0.07" d="M522.928 324.916C513.827 319.603 507.234 319.459 503.149 324.485C499.064 329.439 497.058 337.84 497.058 349.687V413.516C497.058 425.65 495.911 435.701 493.69 443.671C491.468 451.928 487.67 457.815 482.438 461.262C477.35 464.78 470.471 465.713 461.728 464.062C453.2 462.482 442.522 458.031 429.766 450.636L423.674 447.117V396.858L431.271 401.238C440.372 406.551 446.463 407.197 449.545 403.32C452.77 399.587 454.418 391.761 454.418 379.914V323.695C454.418 309.048 455.851 297.489 458.718 288.945C461.584 280.401 467.246 275.016 475.774 272.575C467.246 260.297 461.584 248.307 458.718 236.532C455.851 224.757 454.49 211.546 454.49 196.899V140.68C454.49 128.834 452.841 119.213 449.616 111.674C446.607 104.278 440.515 97.9601 431.342 92.647L423.746 88.2673V38.0082L429.837 41.5263C442.593 48.9216 453.271 56.7477 461.799 65.0763C470.542 73.4768 477.422 82.4516 482.51 91.8572C487.813 101.406 491.54 111.602 493.761 122.444C495.983 132.998 497.129 144.414 497.129 156.476V220.305C497.129 232.152 499.136 242.922 503.221 252.543C507.306 262.236 513.899 269.703 523 274.944L522.928 324.916Z" fill="url(#paint0_linear)"/>
<path opacity="0.07" d="M291.814 140.034C300.915 145.347 307.508 145.491 311.593 140.465C315.678 135.511 317.684 127.11 317.684 115.264V51.4346C317.684 39.3006 318.831 29.2488 321.053 21.2791C323.274 13.0222 326.929 7.06295 332.017 3.54481C337.32 0.0984667 344.2 -0.834917 352.728 0.744656C361.471 2.39603 372.22 6.91935 384.976 14.3146L391.068 17.8328V68.0919L383.471 63.7122C374.37 58.399 368.135 57.6811 364.911 61.4146C361.901 65.2917 360.324 73.1178 360.324 84.9646V141.183C360.324 155.83 358.891 167.39 356.024 175.934C353.158 184.406 347.496 189.863 338.968 192.304C347.496 204.581 353.158 216.572 356.024 228.347C358.891 240.122 360.252 253.333 360.252 267.98V324.198C360.252 336.045 361.757 345.666 364.839 353.061C368.064 360.6 374.298 366.99 383.4 372.231L390.996 376.611V426.87L384.905 423.352C372.149 415.957 361.399 408.059 352.656 399.659C344.128 391.33 337.248 382.427 331.945 372.878C326.857 363.472 323.202 353.348 320.981 342.435C318.759 331.88 317.613 320.464 317.613 308.402V244.573C317.613 232.726 315.606 221.957 311.521 212.336C307.436 202.643 300.843 195.176 291.742 189.934L291.814 140.034Z" fill="url(#paint1_linear)"/>
<path opacity="0.4" d="M494.263 346.456C485.162 341.143 478.569 340.999 474.484 346.025C470.399 350.979 468.393 359.379 468.393 371.226V435.055C468.393 447.189 467.246 457.241 465.024 465.211C462.803 473.468 459.005 479.355 453.773 482.801C448.685 486.32 441.806 487.253 433.063 485.602C424.535 484.022 413.857 479.57 401.101 472.175L395.009 468.657V418.398L402.606 422.778C411.707 428.091 417.798 428.737 420.88 424.86C424.105 421.126 425.753 413.3 425.753 401.453V345.235C425.753 330.588 427.186 319.029 430.053 310.484C432.919 301.94 438.581 296.556 447.109 294.114C438.581 281.837 432.919 269.846 430.053 258.071C427.186 246.296 425.825 233.085 425.825 218.438V162.22C425.825 150.373 424.176 140.752 420.951 133.213C417.942 125.818 411.85 119.5 402.677 114.187L395.081 109.807V59.5479L401.172 63.066C413.928 70.4613 424.606 78.2873 433.134 86.616C441.877 95.0164 448.757 103.991 453.845 113.397C459.148 122.946 462.875 133.142 465.096 143.983C467.318 154.538 468.464 165.954 468.464 178.016V241.845C468.464 253.692 470.471 264.461 474.556 274.083C478.641 283.775 485.234 291.242 494.335 296.484L494.263 346.456Z" fill="url(#paint2_linear)"/>
<path opacity="0.4" d="M263.148 161.574C272.25 166.887 278.843 167.031 282.927 162.005C287.012 157.05 289.019 148.65 289.019 136.803V72.9742C289.019 60.8402 290.165 50.7884 292.387 42.8187C294.609 34.5618 298.263 28.6026 303.352 25.0844C308.655 21.6381 315.534 20.7047 324.062 22.2843C332.805 23.9356 343.555 28.459 356.311 35.8542L362.402 39.3724V89.6315L354.806 85.2518C345.705 79.9386 339.47 79.2207 336.245 82.9542C333.235 86.8313 331.659 94.6574 331.659 106.504V162.723C331.659 177.37 330.225 188.929 327.359 197.473C324.492 205.945 318.831 211.402 310.303 213.843C318.831 226.121 324.492 238.111 327.359 249.886C330.225 261.661 331.587 274.872 331.587 289.519V345.738C331.587 357.584 333.092 367.205 336.173 374.601C339.398 382.14 345.633 388.53 354.734 393.771L362.331 398.151V448.41L356.239 444.892C343.483 437.496 332.734 429.599 323.991 421.198C315.463 412.869 308.583 403.966 303.28 394.417C298.192 385.012 294.537 374.888 292.315 363.974C290.094 353.42 288.947 342.004 288.947 329.942V266.113C288.947 254.266 286.941 243.496 282.856 233.875C278.771 224.182 272.178 216.715 263.077 211.474L263.148 161.574Z" fill="url(#paint3_linear)"/>
<path opacity="0.15" d="M104.056 8.78613L226.528 79.6515L226.457 373.524L103.984 302.658L104.056 8.78613Z" fill="url(#paint4_linear)"/>
<path d="M81.0513 53.9475L178.442 110.31V137.378L81.0513 81.0156V53.9475Z" fill="#6270BF"/>
<path opacity="0.15" d="M119.177 171.41L212.769 225.547V267.621L119.177 213.484V171.41Z" fill="white"/>
<path opacity="0.15" d="M119.105 120.505L212.841 174.713V184.478L119.105 130.341V120.505Z" fill="white"/>
<path opacity="0.15" d="M119.105 139.603L200.156 186.488V196.253L119.105 149.368V139.603Z" fill="white"/>
<path opacity="0.2" d="M104.056 8.78613L226.528 79.6515V119.069L104.056 48.2036V8.78613Z" fill="url(#paint5_linear)"/>
<path opacity="0.2" d="M134.656 46.4087C134.656 52.368 131.144 55.1681 126.845 52.727C122.545 50.214 119.105 43.3931 119.105 37.4338C119.105 31.4745 122.616 28.6744 126.916 31.1155C131.144 33.6285 134.656 40.4494 134.656 46.4087Z" fill="white"/>
<path opacity="0.15" d="M254.549 281.262L377.022 352.128L376.95 646L254.477 575.135L254.549 281.262Z" fill="url(#paint6_linear)"/>
<path d="M301.202 366.775L398.592 423.065V450.061L301.13 393.771L301.202 366.775Z" fill="url(#paint7_linear)"/>
<path opacity="0.15" d="M269.67 394.704L363.334 448.912V490.915L269.67 436.707V394.704Z" fill="white"/>
<path opacity="0.15" d="M269.526 454.728L363.262 508.936V518.701L269.526 464.565V454.728Z" fill="white"/>
<path opacity="0.15" d="M269.526 472.391L350.578 519.275V529.04L269.526 482.155V472.391Z" fill="white"/>
<path opacity="0.2" d="M254.549 281.262L377.022 352.128V391.545L254.549 320.68V281.262Z" fill="url(#paint8_linear)"/>
<path opacity="0.2" d="M285.149 318.957C285.149 324.916 281.638 327.716 277.338 325.275C273.038 322.762 269.598 315.941 269.598 309.982C269.598 304.023 273.11 301.222 277.409 303.664C281.638 306.105 285.149 312.997 285.149 318.957Z" fill="white"/>
<path opacity="0.3" d="M233.336 321.972L20.1377 198.694L20.2094 310.054L214.632 422.49L233.48 450.42L233.336 321.972Z" fill="url(#paint9_linear)"/>
<path opacity="0.15" d="M178.514 317.377L131.79 290.381V300.145L178.514 327.142V317.377Z" fill="white"/>
<path opacity="0.15" d="M178.514 336.978L62.8491 270.062V279.826L178.586 346.743L178.514 336.978Z" fill="white"/>
<path opacity="0.15" d="M178.586 356.579L38.9136 275.806V285.57L178.586 366.344V356.579Z" fill="white"/>
<path d="M190.052 334.25C190.052 343.44 195.498 353.994 202.163 357.872C208.828 361.749 214.274 357.441 214.274 348.251C214.274 339.06 208.828 328.506 202.163 324.629C195.427 320.752 190.052 325.06 190.052 334.25Z" fill="#9729E7"/>
<path opacity="0.15" d="M41.2066 120.505L12.9712 104.135V94.5856L41.2066 110.956C43.4998 112.32 46.868 114.976 49.7345 119.141C52.8161 123.592 55.0376 129.193 55.0376 135.296C55.0376 142.045 53.3177 145.85 50.0928 146.999C47.0113 148.004 43.4282 146.281 41.2066 144.988L29.5971 138.239L29.5254 138.167C28.5222 137.593 26.9456 137.019 25.7273 137.378C24.724 137.665 23.5057 138.742 23.5057 142.475C23.5057 146.209 24.6523 148.506 25.6556 149.871C26.8739 151.594 28.4505 152.814 29.4538 153.317L29.5971 153.389L65.1422 173.923V183.472L29.8121 163.01C27.3755 161.717 23.864 159.061 20.8542 154.825C17.5577 150.158 15.2644 144.27 15.2644 137.665C15.2644 131.131 17.5577 127.757 20.7825 126.823C23.7924 125.962 27.3039 127.254 29.7404 128.69L41.2782 135.367C42.9265 136.301 44.2164 136.731 45.0047 136.444C45.6497 136.229 46.7963 135.296 46.7963 130.485C46.7963 127.326 45.793 125.315 44.7898 123.88C43.6431 122.3 42.1382 121.008 41.2066 120.505Z" fill="white"/>
<path d="M21.3557 105.14C21.3557 113.325 16.5543 117.13 10.6779 113.756C4.80145 110.381 0 100.976 0 92.7906C0 84.6056 4.80145 80.8002 10.6779 84.1748C16.5543 87.6211 21.3557 97.0268 21.3557 105.14Z" fill="#7753CF"/>
<path d="M77.97 184.119C77.97 192.304 73.1685 196.109 67.2921 192.734C61.4157 189.36 56.6143 179.954 56.6143 171.769C56.6143 163.584 61.4157 159.779 67.2921 163.153C73.1685 166.6 77.97 176.005 77.97 184.119Z" fill="#6F5EC9"/>
<path opacity="0.2" d="M154.148 433.763C158.448 436.276 161.888 442.235 161.888 447.261V469.16L176.364 477.488C180.664 480.001 184.104 485.961 184.104 490.986C184.104 495.941 180.592 497.951 176.364 495.51L161.888 487.181V509.08C161.888 514.034 158.376 516.044 154.148 513.603C149.848 511.09 146.409 505.131 146.409 500.105V478.206L131.933 469.878C127.633 467.365 124.193 461.405 124.193 456.379C124.193 451.425 127.704 449.415 131.933 451.856L146.409 460.185V438.286C146.409 433.26 149.848 431.25 154.148 433.763Z" fill="url(#paint10_linear)"/>
<defs>
<linearGradient id="paint0_linear" x1="568.014" y1="52.5248" x2="390.77" y2="359.138" gradientUnits="userSpaceOnUse">
<stop stop-color="white"/>
<stop offset="1" stop-color="white" stop-opacity="0"/>
</linearGradient>
<linearGradient id="paint1_linear" x1="483.031" y1="2.07064" x2="305.786" y2="308.683" gradientUnits="userSpaceOnUse">
<stop stop-color="white"/>
<stop offset="1" stop-color="white" stop-opacity="0"/>
</linearGradient>
<linearGradient id="paint2_linear" x1="539.349" y1="74.0645" x2="362.105" y2="380.677" gradientUnits="userSpaceOnUse">
<stop stop-color="white"/>
<stop offset="1" stop-color="white" stop-opacity="0"/>
</linearGradient>
<linearGradient id="paint3_linear" x1="454.365" y1="23.6101" x2="277.121" y2="330.223" gradientUnits="userSpaceOnUse">
<stop stop-color="white"/>
<stop offset="1" stop-color="white" stop-opacity="0"/>
</linearGradient>
<linearGradient id="paint4_linear" x1="228.751" y1="80.9103" x2="111.415" y2="283.811" gradientUnits="userSpaceOnUse">
<stop stop-color="white"/>
<stop offset="1" stop-color="white" stop-opacity="0"/>
</linearGradient>
<linearGradient id="paint5_linear" x1="146.077" y1="9.38616" x2="183.476" y2="115.229" gradientUnits="userSpaceOnUse">
<stop stop-color="white"/>
<stop offset="1" stop-color="white" stop-opacity="0"/>
</linearGradient>
<linearGradient id="paint6_linear" x1="379.238" y1="353.404" x2="261.903" y2="556.305" gradientUnits="userSpaceOnUse">
<stop stop-color="white"/>
<stop offset="1" stop-color="white" stop-opacity="0"/>
</linearGradient>
<linearGradient id="paint7_linear" x1="301" y1="367" x2="399" y2="446.5" gradientUnits="userSpaceOnUse">
<stop stop-color="#5F72BD"/>
<stop offset="1" stop-color="#9B23EA"/>
</linearGradient>
<linearGradient id="paint8_linear" x1="296.564" y1="281.88" x2="333.964" y2="387.723" gradientUnits="userSpaceOnUse">
<stop stop-color="white"/>
<stop offset="1" stop-color="white" stop-opacity="0"/>
</linearGradient>
<linearGradient id="paint9_linear" x1="186.85" y1="277.408" x2="76.5806" y2="363.583" gradientUnits="userSpaceOnUse">
<stop stop-color="white"/>
<stop offset="1" stop-color="white" stop-opacity="0"/>
</linearGradient>
<linearGradient id="paint10_linear" x1="169.097" y1="461.737" x2="131.511" y2="491.325" gradientUnits="userSpaceOnUse">
<stop stop-color="white"/>
<stop offset="1" stop-color="white" stop-opacity="0"/>
</linearGradient>
</defs>
</svg>
