<svg width="157" height="202" viewBox="0 0 157 202" fill="none" xmlns="http://www.w3.org/2000/svg">
<path opacity="0.5" d="M73.5214 61.7648C87.2561 53.7942 98.6108 61.2435 100.62 78.4443C100.969 81.4197 98.6981 85.3506 95.925 86.9578L51.1178 112.976C48.3446 114.583 46.0737 113.28 46.423 109.892C48.4319 90.4109 59.8084 69.7353 73.5214 61.7648Z" fill="url(#paint0_linear)"/>
<path opacity="0.5" d="M58.2146 39.4386C58.2146 51.3184 65.1148 56.9216 73.6308 51.9699C82.1467 47.0182 89.0469 33.401 89.0469 21.5212C89.0469 9.64138 82.1467 4.03812 73.6308 8.98984C65.1148 13.9416 58.2146 27.5588 58.2146 39.4386Z" fill="url(#paint1_linear)"/>
<path opacity="0.07" d="M64.6996 54.6412C78.4343 46.6707 89.789 54.12 91.7979 71.3207C92.1473 74.2961 89.8763 78.227 87.1032 79.8342L42.296 105.852C39.5228 107.46 37.2519 106.156 37.6013 102.768C39.6102 83.2873 50.9648 62.6118 64.6996 54.6412Z" fill="url(#paint2_linear)"/>
<path opacity="0.07" d="M49.3928 32.315C49.3928 44.1948 56.293 49.7981 64.809 44.8464C73.325 39.8946 80.2251 26.2774 80.2251 14.3976C80.2251 2.51785 73.325 -3.08542 64.809 1.8663C56.293 6.81802 49.3928 20.4353 49.3928 32.315Z" fill="url(#paint3_linear)"/>
<path opacity="0.2" d="M19.7177 121.728L58.52 99.4457V119.557L19.7177 141.839V121.728Z" fill="url(#paint4_linear)"/>
<path d="M50.6374 110.717C50.6374 112.368 51.6201 113.15 52.8429 112.455C54.0657 111.76 55.0483 109.848 55.0483 108.198C55.0483 106.547 54.0657 105.765 52.8429 106.46C51.6201 107.155 50.6374 109.067 50.6374 110.717Z" fill="#5E60CE"/>
<path opacity="0.15" d="M48.5846 110.001L36.9243 116.712V119.122L48.6064 112.411L48.5846 110.001Z" fill="white"/>
<path opacity="0.15" d="M48.5845 114.844L23.7352 129.113V131.567L48.5845 117.298V114.844Z" fill="white"/>
<path opacity="0.2" d="M98.5453 98.49L137.348 76.229V96.3399L98.5453 118.623V98.49Z" fill="url(#paint5_linear)"/>
<path d="M129.465 87.479C129.465 89.1296 130.448 89.9114 131.671 89.2164C132.893 88.5214 133.876 86.6103 133.876 84.9597C133.876 83.3091 132.893 82.5273 131.671 83.2222C130.448 83.9172 129.465 85.8284 129.465 87.479Z" fill="#B263EA"/>
<path opacity="0.15" d="M127.478 86.8708L120.447 90.9104V93.3646L127.478 89.325V86.8708Z" fill="white"/>
<path opacity="0.15" d="M127.412 91.714L102.563 105.983V108.437L127.412 94.1681V91.714Z" fill="white"/>
<path opacity="0.3" d="M73.5435 120.729L0.0220515 162.949L0.000220938 201.065L67.0364 162.58L73.5216 164.687L73.5435 120.729Z" fill="url(#paint6_linear)"/>
<path d="M58.6074 142.078C58.6074 145.227 60.4635 146.682 62.7781 145.358C65.0927 144.033 66.9487 140.406 66.9487 137.279C66.9487 134.129 65.0927 132.674 62.7781 133.999C60.4853 135.324 58.6074 138.951 58.6074 142.078Z" fill="#5E60CE"/>
<path opacity="0.15" d="M54.6333 140.862L38.5184 150.114V153.458L54.6333 144.207V140.862Z" fill="white"/>
<path opacity="0.15" d="M54.6333 147.573L6.50699 175.198V178.543L54.6333 150.917V147.573Z" fill="white"/>
<path opacity="0.15" d="M54.6333 154.284L17.0101 175.893V179.238L54.6333 157.628V154.284Z" fill="white"/>
<path opacity="0.3" d="M83.4786 131.675L157 89.4769L156.978 127.592L89.942 166.077L83.4568 175.633L83.4786 131.675Z" fill="url(#paint7_linear)"/>
<path d="M98.4146 135.867C98.4146 139.016 96.5367 142.621 94.2439 143.946C91.9293 145.271 90.0733 143.794 90.0733 140.645C90.0733 137.496 91.9512 133.891 94.2439 132.566C96.5367 131.263 98.4146 132.739 98.4146 135.867Z" fill="#B263EA"/>
<path opacity="0.15" d="M102.389 130.112L118.503 120.86V124.204L102.389 133.456V130.112Z" fill="white"/>
<path opacity="0.15" d="M102.367 136.801L150.493 109.175V112.52L102.389 140.145L102.367 136.801Z" fill="white"/>
<path opacity="0.15" d="M102.366 143.512L139.99 121.902V125.247L102.366 146.856V143.512Z" fill="white"/>
<path opacity="0.2" d="M126.386 155.413C125.076 156.151 124.028 157.976 124.028 159.496V166.12L119.617 168.639C118.307 169.378 117.258 171.202 117.258 172.701C117.258 174.199 118.307 174.807 119.617 174.069L124.028 171.528V178.152C124.028 179.65 125.076 180.259 126.386 179.52C127.696 178.782 128.744 176.957 128.744 175.459V168.835L133.155 166.316C134.465 165.577 135.513 163.753 135.513 162.254C135.513 160.756 134.465 160.148 133.155 160.886L128.744 163.405V156.781C128.766 155.261 127.696 154.653 126.386 155.413Z" fill="url(#paint8_linear)"/>
<path opacity="0.2" d="M31.5091 70.5605L25.4388 82.4186C24.609 84.0475 24.74 85.6763 25.7445 86.0672C26.7489 86.4582 28.2338 85.4374 29.0635 83.8086L29.129 83.6565V96.8177C29.129 98.3162 30.1772 98.9243 31.4873 98.1859C32.7975 97.4258 33.8456 95.6232 33.8456 94.1246V80.9635L33.9111 81.0287C34.7409 81.7019 36.2475 81.0069 37.2302 79.465C38.2346 77.923 38.3656 76.1421 37.5359 75.4688L31.5091 70.5605Z" fill="url(#paint9_linear)"/>
<path opacity="0.2" d="M83.4785 91.7596L92.8242 86.3952V83.2678L83.4785 88.6322C82.7142 89.0665 81.6006 89.957 80.6616 91.3252C79.6354 92.7803 78.9148 94.6264 78.9148 96.6244C78.9148 98.8397 79.4825 100.099 80.5525 100.447C81.5569 100.773 82.7579 100.208 83.4785 99.7953L87.3216 97.58L87.3434 97.5583C87.671 97.3629 88.195 97.1674 88.6099 97.2977C88.9593 97.4063 89.3305 97.7321 89.3305 98.97C89.3305 100.208 88.9374 100.946 88.6317 101.402C88.2387 101.967 87.7146 102.358 87.3871 102.532L87.3434 102.553L75.5957 109.308V112.435L87.2779 105.724C88.0858 105.312 89.2431 104.421 90.2476 103.031C91.3394 101.489 92.0818 99.5564 92.0818 97.4063C92.0818 95.2562 91.3394 94.1703 90.2694 93.8662C89.265 93.5839 88.1077 93.9966 87.2997 94.4744L83.5003 96.6679C82.9544 96.9936 82.5395 97.124 82.2557 97.0371C82.0373 96.9719 81.6443 96.6679 81.6443 95.0825C81.6443 94.04 81.9718 93.3667 82.2993 92.9324C82.6705 92.346 83.1509 91.9333 83.4785 91.7596Z" fill="white"/>
<path d="M91.0994 85.7221C91.0994 88.5238 92.759 89.8486 94.7897 88.6975C96.8204 87.5247 98.48 84.3104 98.48 81.4871C98.48 78.6854 96.8204 77.3606 94.7897 78.5117C92.759 79.6845 91.0994 82.9205 91.0994 85.7221Z" fill="#B263EA"/>
<path d="M70.7918 113.521C70.7918 116.323 72.4514 117.647 74.4821 116.496C76.5128 115.324 78.1724 112.109 78.1724 109.286C78.1724 106.484 76.5128 105.16 74.4821 106.311C72.4514 107.484 70.7918 110.719 70.7918 113.521Z" fill="#5E60CE"/>
<defs>
<linearGradient id="paint0_linear" x1="16.8625" y1="48.7669" x2="72.4312" y2="89.5224" gradientUnits="userSpaceOnUse">
<stop stop-color="white"/>
<stop offset="1" stop-color="white" stop-opacity="0"/>
</linearGradient>
<linearGradient id="paint1_linear" x1="45.2884" y1="9.92061" x2="100.857" y2="50.6761" gradientUnits="userSpaceOnUse">
<stop stop-color="white"/>
<stop offset="1" stop-color="white" stop-opacity="0"/>
</linearGradient>
<linearGradient id="paint2_linear" x1="8.03696" y1="41.6409" x2="63.6056" y2="82.3963" gradientUnits="userSpaceOnUse">
<stop stop-color="white"/>
<stop offset="1" stop-color="white" stop-opacity="0"/>
</linearGradient>
<linearGradient id="paint3_linear" x1="36.4629" y1="2.7944" x2="92.0314" y2="43.5498" gradientUnits="userSpaceOnUse">
<stop stop-color="white"/>
<stop offset="1" stop-color="white" stop-opacity="0"/>
</linearGradient>
<linearGradient id="paint4_linear" x1="34.7458" y1="113.103" x2="43.4276" y2="128.226" gradientUnits="userSpaceOnUse">
<stop stop-color="white"/>
<stop offset="1" stop-color="white" stop-opacity="0"/>
</linearGradient>
<linearGradient id="paint5_linear" x1="113.573" y1="89.8678" x2="122.255" y2="104.991" gradientUnits="userSpaceOnUse">
<stop stop-color="white"/>
<stop offset="1" stop-color="white" stop-opacity="0"/>
</linearGradient>
<linearGradient id="paint6_linear" x1="41.9643" y1="121.97" x2="32.559" y2="198.668" gradientUnits="userSpaceOnUse">
<stop stop-color="white"/>
<stop offset="1" stop-color="white" stop-opacity="0"/>
</linearGradient>
<linearGradient id="paint7_linear" x1="99.5103" y1="116.412" x2="137.321" y2="146.177" gradientUnits="userSpaceOnUse">
<stop stop-color="white"/>
<stop offset="1" stop-color="white" stop-opacity="0"/>
</linearGradient>
<linearGradient id="paint8_linear" x1="121.832" y1="163.873" x2="133.217" y2="172.907" gradientUnits="userSpaceOnUse">
<stop stop-color="white"/>
<stop offset="1" stop-color="white" stop-opacity="0"/>
</linearGradient>
<linearGradient id="paint9_linear" x1="27.1941" y1="82.5228" x2="38.241" y2="88.7142" gradientUnits="userSpaceOnUse">
<stop stop-color="white"/>
<stop offset="1" stop-color="white" stop-opacity="0"/>
</linearGradient>
</defs>
</svg>
