<svg width="69" height="69" viewBox="0 0 69 69" fill="none" xmlns="http://www.w3.org/2000/svg">
<g clip-path="url(#clip0)" filter="url(#filter0_d)">
<path d="M34.4939 24.3299C29.9951 24.3299 26.3237 28.0012 26.3237 32.5C26.3237 36.9988 29.9951 40.6701 34.4939 40.6701C38.9927 40.6701 42.664 36.9988 42.664 32.5C42.664 28.0012 38.9927 24.3299 34.4939 24.3299ZM58.9982 32.5C58.9982 29.1167 59.0288 25.7641 58.8388 22.3869C58.6488 18.4643 57.754 14.9829 54.8855 12.1145C52.011 9.23991 48.5357 8.35118 44.6131 8.16118C41.2298 7.97118 37.8772 8.00182 34.5 8.00182C31.1167 8.00182 27.7641 7.97118 24.3869 8.16118C20.4643 8.35118 16.9829 9.24604 14.1145 12.1145C11.2399 14.989 10.3512 18.4643 10.1612 22.3869C9.97118 25.7702 10.0018 29.1228 10.0018 32.5C10.0018 35.8772 9.97118 39.2359 10.1612 42.6131C10.3512 46.5357 11.246 50.0171 14.1145 52.8855C16.989 55.7601 20.4643 56.6488 24.3869 56.8388C27.7702 57.0288 31.1228 56.9982 34.5 56.9982C37.8833 56.9982 41.2359 57.0288 44.6131 56.8388C48.5357 56.6488 52.0171 55.754 54.8855 52.8855C57.7601 50.011 58.6488 46.5357 58.8388 42.6131C59.035 39.2359 58.9982 35.8833 58.9982 32.5ZM34.4939 45.0709C27.5373 45.0709 21.923 39.4566 21.923 32.5C21.923 25.5434 27.5373 19.9291 34.4939 19.9291C41.4504 19.9291 47.0647 25.5434 47.0647 32.5C47.0647 39.4566 41.4504 45.0709 34.4939 45.0709ZM47.5796 22.3501C45.9554 22.3501 44.6437 21.0385 44.6437 19.4143C44.6437 17.7901 45.9554 16.4784 47.5796 16.4784C49.2038 16.4784 50.5154 17.7901 50.5154 19.4143C50.5159 19.8 50.4403 20.1819 50.293 20.5384C50.1456 20.8948 49.9293 21.2186 49.6566 21.4913C49.3839 21.764 49.0601 21.9803 48.7037 22.1276C48.3473 22.275 47.9653 22.3506 47.5796 22.3501Z" fill="url(#paint0_linear)"/>
</g>
<defs>
<filter id="filter0_d" x="0" y="0" width="69" height="69" filterUnits="userSpaceOnUse" color-interpolation-filters="sRGB">
<feFlood flood-opacity="0" result="BackgroundImageFix"/>
<feColorMatrix in="SourceAlpha" type="matrix" values="0 0 0 0 0 0 0 0 0 0 0 0 0 0 0 0 0 0 127 0"/>
<feOffset dy="2"/>
<feGaussianBlur stdDeviation="5"/>
<feColorMatrix type="matrix" values="0 0 0 0 0.698039 0 0 0 0 0.462745 0 0 0 0 0.933333 0 0 0 0.54 0"/>
<feBlend mode="normal" in2="BackgroundImageFix" result="effect1_dropShadow"/>
<feBlend mode="normal" in="SourceGraphic" in2="effect1_dropShadow" result="shape"/>
</filter>
<linearGradient id="paint0_linear" x1="10" y1="8" x2="60" y2="9.04157" gradientUnits="userSpaceOnUse">
<stop stop-color="#B78CFF"/>
<stop offset="1" stop-color="#9729E7"/>
</linearGradient>
<clipPath id="clip0">
<rect width="49" height="49" fill="white" transform="translate(10 8)"/>
</clipPath>
</defs>
</svg>
