<svg width="69" height="69" viewBox="0 0 69 69" fill="none" xmlns="http://www.w3.org/2000/svg">
<g filter="url(#filter0_d)">
<path d="M19.6072 8.01221C14.3291 8.01221 10.0093 12.3319 10.0093 17.6102V47.3944C10.0093 52.6725 14.329 56.9908 19.6072 56.9908H49.3915C54.6696 56.9908 58.9879 52.6726 58.9879 47.3944V17.6102C58.9879 12.332 54.6696 8.01221 49.3915 8.01221H19.6072ZM22.0213 16.0947C24.552 16.0947 26.1109 17.7561 26.159 19.9399C26.159 22.0756 24.5519 23.7837 21.9723 23.7837H21.9249C19.4423 23.7837 17.8377 22.0757 17.8377 19.9399C17.8377 17.7561 19.4908 16.0947 22.0212 16.0947H22.0213ZM43.8302 26.3018C48.6973 26.3018 52.3459 29.483 52.3459 36.3192V49.0812H44.9492V37.1749C44.9492 34.1829 43.8787 32.1417 41.2019 32.1417C39.1584 32.1417 37.9403 33.5175 37.4056 34.8466C37.2102 35.3221 37.1622 35.9862 37.1622 36.6513V49.0812H29.7655C29.7655 49.0812 29.8626 28.9122 29.7655 26.8238H37.1637V29.9757C38.1466 28.4591 39.9049 26.3018 43.8302 26.3018V26.3018ZM18.274 26.8254H25.6707V49.0813H18.274V26.8254Z" fill="url(#paint0_linear)"/>
</g>
<defs>
<filter id="filter0_d" x="0" y="0" width="69" height="69" filterUnits="userSpaceOnUse" color-interpolation-filters="sRGB">
<feFlood flood-opacity="0" result="BackgroundImageFix"/>
<feColorMatrix in="SourceAlpha" type="matrix" values="0 0 0 0 0 0 0 0 0 0 0 0 0 0 0 0 0 0 127 0"/>
<feOffset dy="2"/>
<feGaussianBlur stdDeviation="5"/>
<feColorMatrix type="matrix" values="0 0 0 0 0.698039 0 0 0 0 0.462745 0 0 0 0 0.933333 0 0 0 0.54 0"/>
<feBlend mode="normal" in2="BackgroundImageFix" result="effect1_dropShadow"/>
<feBlend mode="normal" in="SourceGraphic" in2="effect1_dropShadow" result="shape"/>
</filter>
<linearGradient id="paint0_linear" x1="10.0093" y1="8.01221" x2="59.9864" y2="9.05329" gradientUnits="userSpaceOnUse">
<stop stop-color="#B78CFF"/>
<stop offset="1" stop-color="#9729E7"/>
</linearGradient>
</defs>
</svg>
