<svg width="73" height="44" viewBox="0 0 73 44" fill="none" xmlns="http://www.w3.org/2000/svg">
<path d="M9.3682 12.552C9.3682 13.392 8.9122 13.728 7.9522 13.728H5.5282V11.328H7.9522C8.9122 11.328 9.3682 11.736 9.3682 12.552ZM9.0082 6.45597C9.0082 7.27197 8.5522 7.63197 7.5922 7.63197H5.5282V5.23197H7.5922C8.5522 5.23197 9.0082 5.61597 9.0082 6.45597ZM14.8162 13.344C14.8162 11.448 13.6642 9.79197 11.5762 9.28797C13.2562 8.85597 14.4322 7.46397 14.4322 5.42397C14.4322 2.47197 12.2482 1.00797 8.8642 1.00797H0.200195V18H9.1042C12.8002 18 14.8162 16.32 14.8162 13.344Z" fill="#FAFAFA"/>
<path d="M34.7984 9.43197C34.7984 4.31997 30.9344 0.719971 26.0864 0.719971C21.2624 0.719971 17.3264 4.31997 17.3264 9.43197C17.3264 14.544 21.2624 18.168 26.0864 18.168C30.8864 18.168 34.7984 14.544 34.7984 9.43197ZM22.7504 9.43197C22.7504 7.12797 23.9024 5.63997 26.0864 5.63997C28.2224 5.63997 29.3984 7.12797 29.3984 9.43197C29.3984 11.688 28.2224 13.2 26.0864 13.2C23.9024 13.2 22.7504 11.688 22.7504 9.43197Z" fill="#FAFAFA"/>
<path d="M47.0885 12.552C47.0885 13.392 46.6325 13.728 45.6725 13.728H43.2485V11.328H45.6725C46.6325 11.328 47.0885 11.736 47.0885 12.552ZM46.7285 6.45597C46.7285 7.27197 46.2725 7.63197 45.3125 7.63197H43.2485V5.23197H45.3125C46.2725 5.23197 46.7285 5.61597 46.7285 6.45597ZM52.5365 13.344C52.5365 11.448 51.3845 9.79197 49.2965 9.28797C50.9765 8.85597 52.1525 7.46397 52.1525 5.42397C52.1525 2.47197 49.9685 1.00797 46.5845 1.00797H37.9205V18H46.8245C50.5205 18 52.5365 16.32 52.5365 13.344Z" fill="#FAFAFA"/>
<path d="M67.2628 18H72.8788L66.6868 1.00797H60.5428L54.3268 18H59.9188L60.7588 15.432H66.4228L67.2628 18ZM65.1268 11.424H62.0548L63.5908 6.69597L65.1268 11.424Z" fill="#FAFAFA"/>
<path d="M0.200195 43H5.5282V36.592H10.3282V32.584H5.5282V30.232H12.2002V26.008H0.200195V43Z" fill="#FAFAFA"/>
<path d="M26.5329 26.008H15.2049V43H26.5329V38.752H20.5329V36.352H25.8129V32.344H20.5329V30.256H26.5329V26.008Z" fill="#FAFAFA"/>
<path d="M42.8688 37.744C42.8688 32.512 34.9728 32.872 34.9728 30.736C34.9728 30.16 35.3088 29.872 35.7408 29.872C36.3168 29.872 36.8688 30.184 36.9168 31.216H42.6528C42.5088 27.688 39.8688 25.72 35.7648 25.72C32.1408 25.72 29.2608 27.496 29.2608 30.904C29.1648 36.712 37.1808 35.872 37.2048 38.176C37.2048 38.776 36.7008 39.016 36.1728 39.016C35.6448 39.016 34.9728 38.8 34.8768 37.552H29.2128C29.4528 41.368 32.5008 43.168 36.3888 43.168C40.4928 43.168 42.8688 40.864 42.8688 37.744Z" fill="#FAFAFA"/>
<path d="M44.9808 30.232H49.4448V43H54.7728V30.232H59.2848V26.008H44.9808V30.232Z" fill="#FAFAFA"/>
<path d="M67.6179 40.576C67.6179 39.088 66.4419 37.912 64.5699 37.912C62.6739 37.912 61.4979 39.088 61.4979 40.576C61.4979 42.04 62.6739 43.192 64.5699 43.192C66.4419 43.192 67.6179 42.04 67.6179 40.576Z" fill="#FAFAFA"/>
</svg>
