<svg width="69" height="59" viewBox="0 0 69 59" fill="none" xmlns="http://www.w3.org/2000/svg">
<g filter="url(#filter0_d)">
<path d="M34.5 8.63501C10.4214 8.63501 10 10.7763 10 27.5C10 44.2237 10.4214 46.365 34.5 46.365C58.5786 46.365 59 44.2237 59 27.5C59 10.7763 58.5786 8.63501 34.5 8.63501ZM42.3522 28.3183L31.3518 33.4535C30.3889 33.8994 29.6 33.3996 29.6 32.3363V22.6637C29.6 21.6029 30.3889 21.1006 31.3518 21.5465L42.3522 26.6817C43.3151 27.1325 43.3151 27.8675 42.3522 28.3183Z" fill="url(#paint0_linear)"/>
</g>
<defs>
<filter id="filter0_d" x="0" y="-5" width="69" height="69" filterUnits="userSpaceOnUse" color-interpolation-filters="sRGB">
<feFlood flood-opacity="0" result="BackgroundImageFix"/>
<feColorMatrix in="SourceAlpha" type="matrix" values="0 0 0 0 0 0 0 0 0 0 0 0 0 0 0 0 0 0 127 0"/>
<feOffset dy="2"/>
<feGaussianBlur stdDeviation="5"/>
<feColorMatrix type="matrix" values="0 0 0 0 0.698039 0 0 0 0 0.462745 0 0 0 0 0.933333 0 0 0 0.54 0"/>
<feBlend mode="normal" in2="BackgroundImageFix" result="effect1_dropShadow"/>
<feBlend mode="normal" in="SourceGraphic" in2="effect1_dropShadow" result="shape"/>
</filter>
<linearGradient id="paint0_linear" x1="10" y1="8.63501" x2="59.9841" y2="9.98725" gradientUnits="userSpaceOnUse">
<stop stop-color="#B78CFF"/>
<stop offset="1" stop-color="#9729E7"/>
</linearGradient>
</defs>
</svg>
